<svg width="100" height="100" viewBox="0 0 100 100" fill="none" xmlns="http://www.w3.org/2000/svg">
<circle cx="50" cy="50" r="50" fill="white"/>
<path d="M41.8002 61.837C41.577 61.837 41.3549 61.7659 41.1695 61.6248C37.5207 58.8559 35.4275 54.6301 35.4275 50.0311C35.4275 41.9794 41.9777 35.4292 50.0294 35.4292C58.0811 35.4292 64.6312 41.9794 64.6312 50.0311C64.6312 54.6302 62.538 58.8568 58.8888 61.6258C58.5487 61.8846 58.0852 61.9084 57.7206 61.6886C57.3548 61.468 57.1603 61.0481 57.2292 60.6266C57.2965 60.2147 57.3305 59.8083 57.3305 59.4183C57.3305 55.3926 54.0555 52.1175 50.0298 52.1175C46.0042 52.1175 42.7291 55.3925 42.7291 59.4183C42.7291 59.8072 42.7631 60.2142 42.8305 60.6277C42.8986 61.0488 42.7037 61.4691 42.3379 61.6885C42.1714 61.788 41.9857 61.8375 41.8003 61.8375L41.8002 61.837ZM50.0293 37.5145C43.1281 37.5145 37.5136 43.1291 37.5136 50.0302C37.5136 53.1729 38.6535 56.112 40.7001 58.3763C41.2191 53.6878 45.2051 50.0302 50.0293 50.0302C54.8533 50.0302 58.8392 53.6882 59.3586 58.3763C61.4053 56.112 62.5451 53.1729 62.5451 50.0302C62.5451 43.129 56.9305 37.5145 50.0293 37.5145Z" fill="#101828"/>
<path d="M50.0293 64.6318C46.7974 64.6318 43.7326 63.5907 41.165 61.6211C40.9543 61.4592 40.8132 61.2228 40.7704 60.9606C40.6861 60.437 40.6426 59.9175 40.6426 59.417C40.6426 54.2413 44.8536 50.0303 50.0293 50.0303C55.2051 50.0303 59.4161 54.2413 59.4161 59.417C59.4161 59.9191 59.373 60.4393 59.2871 60.9617C59.2443 61.2238 59.1032 61.4599 58.8929 61.6211C56.3256 63.5906 53.261 64.6317 50.0293 64.6317L50.0293 64.6318ZM42.774 60.2168C44.9024 61.7422 47.4015 62.5458 50.0297 62.5458C52.6571 62.5458 55.1567 61.7422 57.2854 60.2168C57.3153 59.9448 57.3308 59.677 57.3308 59.4167C57.3308 55.3911 54.0557 52.116 50.03 52.116C46.0044 52.116 42.7293 55.391 42.7293 59.4167C42.7285 59.6762 42.7437 59.9448 42.7739 60.2168H42.774ZM58.2581 60.7934H58.2683H58.2581Z" fill="#101828"/>
<path d="M50.0322 52.1172C47.157 52.1172 44.8171 49.7777 44.8171 46.9021C44.8171 44.0269 47.1566 41.687 50.0322 41.687C52.9075 41.687 55.2473 44.0265 55.2473 46.9021C55.2473 49.7777 52.9079 52.1172 50.0322 52.1172ZM50.0322 43.7735C48.3068 43.7735 46.9032 45.177 46.9032 46.9026C46.9032 48.6282 48.3067 50.0317 50.0322 50.0317C51.7578 50.0317 53.1613 48.6282 53.1613 46.9026C53.1613 45.177 51.7578 43.7735 50.0322 43.7735Z" fill="#101828"/>
<path d="M30.2151 35.4302C27.3399 35.4302 25 33.0907 25 30.2151C25 27.3399 27.3395 25 30.2151 25C33.0903 25 35.4302 27.3395 35.4302 30.2151C35.4302 33.0906 33.0907 35.4302 30.2151 35.4302ZM30.2151 27.0865C28.49 27.0865 27.0864 28.49 27.0864 30.2152C27.0864 31.9407 28.4899 33.3443 30.2155 33.3443C31.9409 33.3443 33.3446 31.9408 33.3446 30.2152C33.3442 28.4901 31.9407 27.0865 30.2152 27.0865H30.2151Z" fill="#101828"/>
<path d="M69.8494 35.4302C66.9741 35.4302 64.6343 33.0907 64.6343 30.2151C64.6343 27.3399 66.9738 25 69.8494 25C72.7246 25 75.0645 27.3395 75.0645 30.2151C75.0641 33.0906 72.7246 35.4302 69.8494 35.4302ZM69.8494 27.0865C68.1239 27.0865 66.7203 28.49 66.7203 30.2156C66.7203 31.941 68.1238 33.3447 69.8494 33.3447C71.5748 33.3447 72.9785 31.9411 72.9785 30.2156C72.9781 28.4901 71.5745 27.0865 69.8494 27.0865Z" fill="#101828"/>
<path d="M30.2151 75.0635C27.3399 75.0635 25 72.724 25 69.8484C25 66.9732 27.3395 64.6333 30.2151 64.6333C33.0903 64.6333 35.4302 66.9728 35.4302 69.8484C35.4302 72.7239 33.0907 75.0635 30.2151 75.0635ZM30.2151 66.7198C28.4897 66.7198 27.086 68.1233 27.086 69.8489C27.086 71.5743 28.4896 72.978 30.2151 72.978C31.9406 72.978 33.3442 71.5744 33.3442 69.8489C33.3442 68.1234 31.9407 66.7198 30.2151 66.7198Z" fill="#101828"/>
<path d="M69.8494 75.0635C66.9741 75.0635 64.6343 72.724 64.6343 69.8484C64.6343 66.9732 66.9738 64.6333 69.8494 64.6333C72.7246 64.6333 75.0645 66.9728 75.0645 69.8484C75.0641 72.7239 72.7246 75.0635 69.8494 75.0635ZM69.8494 66.7198C68.1239 66.7198 66.7203 68.1233 66.7203 69.8489C66.7203 71.5743 68.1238 72.978 69.8494 72.978C71.5748 72.978 72.9785 71.5744 72.9785 69.8489C72.9781 68.1234 71.5745 66.7198 69.8494 66.7198Z" fill="#101828"/>
<path d="M59.6203 41.4878C59.3536 41.4878 59.0865 41.386 58.883 41.1821C58.4755 40.7747 58.4755 40.1146 58.883 39.7074L65.9831 32.6069C66.3906 32.1994 67.0507 32.1994 67.4579 32.6069C67.8653 33.0143 67.8653 33.6744 67.4579 34.0816L60.3577 41.1821C60.1538 41.3857 59.8871 41.4878 59.6204 41.4878H59.6203Z" fill="#101828"/>
<path d="M40.4422 41.4853C40.1755 41.4853 39.9084 41.3835 39.7049 41.1796L32.6073 34.0821C32.1999 33.6746 32.1999 33.0145 32.6073 32.6073C33.0148 32.1999 33.6749 32.1999 34.0821 32.6073L41.1796 39.7049C41.587 40.1123 41.587 40.7725 41.1796 41.1796C40.9757 41.3831 40.709 41.4853 40.4423 41.4853H40.4422Z" fill="#101828"/>
<path d="M66.7201 67.7631C66.4435 67.7631 66.1681 67.6542 65.9627 67.437L59.0475 60.1363C58.6514 59.7182 58.6692 59.0581 59.0876 58.6619C59.5064 58.2666 60.1658 58.2836 60.5619 58.702L67.4771 66.0028C67.8732 66.4208 67.8554 67.081 67.437 67.4771C67.2354 67.6682 66.9777 67.7631 66.7201 67.7631L66.7201 67.7631Z" fill="#101828"/>
<path d="M33.3444 67.7632C33.0777 67.7632 32.8106 67.6614 32.6071 67.4575C32.1997 67.0501 32.1997 66.39 32.6071 65.9828L39.7046 58.8857C40.1121 58.4782 40.7722 58.4782 41.1794 58.8857C41.5868 59.2931 41.5868 59.9532 41.1794 60.3604L34.0818 67.4575C33.8783 67.6611 33.6116 67.7632 33.3445 67.7632H33.3444Z" fill="#101828"/>
</svg>
