<svg width="100" height="100" viewBox="0 0 100 100" fill="none" xmlns="http://www.w3.org/2000/svg">
<circle cx="50" cy="50" r="50" fill="white"/>
<path d="M63.6528 57.0737H68.5873V58.7186H63.6528V57.0737Z" fill="#101828"/>
<path d="M60.3635 62.0083H68.5877V63.6531H60.3635V62.0083Z" fill="#101828"/>
<path d="M60.3635 66.9429H68.5877V68.5877H60.3635V66.9429Z" fill="#101828"/>
<path d="M41.4057 33.6355C41.3073 33.3425 41.0532 33.1296 40.7478 33.0837L38.3408 32.7162L37.258 30.4076C37.1225 30.119 36.8325 29.9351 36.5138 29.9351C36.1951 29.9351 35.905 30.119 35.7696 30.4076L34.6846 32.7177L32.2776 33.0852C31.9729 33.1318 31.7196 33.3448 31.6215 33.637C31.5239 33.9296 31.5977 34.252 31.8128 34.4726L33.5796 36.282L33.161 38.848C33.11 39.159 33.2414 39.4714 33.4992 39.6528C33.7565 39.8341 34.095 39.8525 34.3708 39.7001L36.5138 38.5164L38.6569 39.7009C38.9326 39.8533 39.2712 39.8349 39.5285 39.6535C39.7863 39.4721 39.9177 39.1597 39.8667 38.8487L39.4481 36.2827L41.2149 34.4734V34.4738C41.4307 34.2524 41.5045 33.9285 41.4058 33.6356L41.4057 33.6355ZM37.9813 35.4302H37.9809C37.7988 35.6167 37.7162 35.8788 37.758 36.1365L37.9702 37.441L36.911 36.8554C36.6635 36.7189 36.3639 36.7189 36.1165 36.8554L35.0572 37.441L35.2694 36.1365C35.3113 35.8788 35.2286 35.6167 35.0465 35.4302L34.1081 34.4686L35.3671 34.2762C35.6384 34.2348 35.8708 34.0607 35.9872 33.8125L36.5137 32.6931L37.0402 33.814C37.1566 34.0622 37.389 34.2363 37.6603 34.2778L38.9193 34.4701L37.9813 35.4302Z" fill="#101828"/>
<path d="M57.9384 33.6355C57.8404 33.9278 57.9142 34.2505 58.1293 34.4711L59.8961 36.2804L59.4775 38.8465C59.4265 39.1571 59.5579 39.4699 59.8157 39.6513C60.0731 39.8326 60.4116 39.851 60.6873 39.6983L62.8304 38.5164L64.9734 39.7009C65.2492 39.8533 65.5877 39.8349 65.845 39.6535C66.1028 39.4722 66.2342 39.1597 66.1832 38.8487L65.7646 36.2827L67.5314 34.4734V34.4738C67.7465 34.2531 67.8203 33.9304 67.7227 33.6381C67.6246 33.3455 67.3713 33.1326 67.0666 33.0863L64.6596 32.7188L63.5746 30.4076C63.4392 30.119 63.1491 29.9351 62.8304 29.9351C62.5117 29.9351 62.2217 30.119 62.0862 30.4076L61.0013 32.7177L58.5943 33.0852C58.2899 33.1318 58.037 33.344 57.9386 33.6355L57.9384 33.6355ZM61.6838 34.2762C61.9551 34.2347 62.1875 34.0607 62.3039 33.8125L62.8304 32.693L63.3569 33.814C63.4733 34.0622 63.7057 34.2362 63.977 34.2777L65.236 34.4701L64.2975 35.4316C64.1154 35.6185 64.0328 35.8806 64.0747 36.138L64.2869 37.4425L63.2276 36.8569C62.9802 36.7207 62.6806 36.7207 62.4331 36.8569L61.3738 37.4425L61.5861 36.138C61.6279 35.8806 61.5453 35.6185 61.3632 35.4316L60.4248 34.4701L61.6838 34.2762Z" fill="#101828"/>
<path d="M55.3867 29.3305C55.2883 29.0375 55.0342 28.8242 54.7288 28.7787L51.7534 28.3238L50.4166 25.4725C50.2811 25.1839 49.9911 25 49.6724 25C49.3537 25 49.0636 25.1839 48.9282 25.4725L47.5892 28.3238L44.6138 28.7827C44.3091 28.8294 44.0558 29.0423 43.9577 29.3346C43.8601 29.6268 43.9339 29.9495 44.149 30.1702L46.327 32.4013L45.8115 35.5629H45.8111C45.7608 35.8735 45.8919 36.1856 46.1493 36.3669C46.4063 36.5479 46.7444 36.5667 47.0201 36.4147L49.6724 34.9449L52.3248 36.4106C52.6005 36.5626 52.9386 36.5439 53.1956 36.3629C53.453 36.1815 53.5841 35.8691 53.5338 35.5585L53.0179 32.4013L55.1959 30.1702C55.4125 29.9484 55.4863 29.6239 55.3868 29.3305L55.3867 29.3305ZM51.5508 31.5459C51.3687 31.7328 51.2861 31.9949 51.3279 32.2526L51.6378 34.1515L50.0693 33.2854H50.0696C49.8222 33.1492 49.5226 33.1492 49.2751 33.2854L47.7066 34.1515L48.0165 32.2526H48.0169C48.0587 31.9949 47.9761 31.7328 47.794 31.5459L46.4444 30.1628L48.2743 29.8838C48.5453 29.8423 48.778 29.6682 48.8944 29.4201L49.6724 27.7573L50.453 29.4201C50.5694 29.6682 50.8018 29.8423 51.0731 29.8838L52.9003 30.1624L51.5508 31.5459Z" fill="#101828"/>
<path d="M29.1117 74.3449H50.4945C50.5991 74.3453 50.7027 74.3255 50.7996 74.2866L50.8143 74.28L58.4627 71.2224C59.8512 73.1782 62.1004 74.3417 64.4994 74.345H70.9143C71.7763 74.3645 72.613 74.0524 73.2511 73.4727C73.8896 72.8933 74.281 72.0903 74.3445 71.2305C74.4051 70.1122 73.8915 69.0401 72.9817 68.3866C72.3197 67.9526 71.9081 67.2253 71.8773 66.4341V58.7431C71.8751 56.7745 71.092 54.8869 69.7001 53.4947C68.3079 52.1028 66.4203 51.3196 64.4517 51.3175H60.3635V49.6726H61.1859C61.5299 49.6723 61.8372 49.4579 61.9565 49.1351C62.0755 48.8128 61.9815 48.45 61.7205 48.2261L50.2067 38.3571C49.899 38.0939 49.4452 38.0939 49.1375 38.3571L45.5601 41.4232V40.6261C45.5601 40.408 45.4734 40.1987 45.3192 40.0445C45.165 39.8903 44.9558 39.8037 44.7377 39.8037H41.448C40.9939 39.8037 40.6256 40.1719 40.6256 40.6261V45.5606C40.6256 45.5885 40.6388 45.6116 40.6414 45.6388L37.6238 48.226C37.3628 48.45 37.2688 48.8127 37.3878 49.1351C37.5071 49.4578 37.8144 49.6722 38.1584 49.6726H38.9808V62.0088C38.9808 62.2269 39.0675 62.4362 39.2217 62.5904C39.3759 62.7446 39.5851 62.8312 39.8032 62.8312H46.3825C46.6006 62.8312 46.8099 62.7446 46.9641 62.5904C47.1183 62.4362 47.205 62.2269 47.205 62.0088V57.8967H52.1394V62.0088C52.1394 62.2269 52.2261 62.4362 52.3803 62.5904C52.5345 62.7446 52.7438 62.8312 52.9619 62.8312H57.0739V66.9194C57.0758 67.5502 57.1587 68.1784 57.3206 68.7879L50.8155 66.1858L50.8008 66.1792H50.8004C50.7134 66.1462 50.6209 66.1286 50.5277 66.1275C50.5163 66.1275 50.5071 66.1208 50.4957 66.1208H29.112C27.643 66.1208 26.2853 66.9047 25.551 68.1769C24.8163 69.449 24.8163 71.0168 25.551 72.289C26.2853 73.5611 27.643 74.345 29.112 74.345L29.1117 74.3449ZM42.2703 41.4484H43.9152V42.8326L42.2703 44.2446V41.4484ZM49.6721 40.0642L58.9654 48.0277H40.3788L49.6721 40.0642ZM57.0738 61.1866H53.7841V57.0745C53.7841 56.8564 53.6975 56.6472 53.5433 56.493C53.3891 56.3388 53.1798 56.2521 52.9617 56.2521H46.3824C45.9283 56.2521 45.56 56.6204 45.56 57.0745V61.1866H40.6255V49.6728H58.7186V51.3176H58.0361C57.1748 51.2993 56.3395 51.6121 55.7021 52.1914C55.0648 52.7712 54.6741 53.573 54.6106 54.4322C54.55 55.5505 55.0637 56.6226 55.9735 57.2761C56.634 57.7112 57.0438 58.4381 57.0738 59.2286L57.0738 61.1866ZM56.9357 55.943C56.4794 55.6158 56.2213 55.0783 56.2514 54.5177C56.2984 54.0812 56.508 53.6788 56.8388 53.3902C57.17 53.102 57.5974 52.9493 58.0361 52.9625H64.4509C65.9838 52.9639 67.453 53.5734 68.5369 54.6572C69.6211 55.741 70.2306 57.2104 70.2324 58.7432V66.4343C70.2585 67.7542 70.923 68.979 72.0153 69.7199C72.4717 70.047 72.7298 70.5845 72.6997 71.1452C72.6527 71.5817 72.443 71.9841 72.1122 72.2727C71.7811 72.5609 71.3537 72.7136 70.915 72.7004H64.5002C62.9673 72.6989 61.498 72.0895 60.4141 71.0057C59.33 69.9219 58.7204 68.4525 58.7186 66.9196V59.2286C58.6926 57.9087 58.028 56.6839 56.9357 55.943ZM51.3169 68.1579L56.5047 70.2331L51.3169 72.3082V68.1579ZM33.2238 67.7658H49.6721V69.4107H33.2238V67.7658ZM33.2238 71.0555H49.6721V72.7003H33.2238V71.0555ZM29.1117 67.7658H31.579V72.7003H29.1117C28.2302 72.7003 27.4159 72.23 26.975 71.4667C26.5344 70.7034 26.5344 69.7627 26.975 68.9994C27.4159 68.2361 28.2302 67.7658 29.1117 67.7658Z" fill="#101828"/>
</svg>
